<svg xmlns="http://www.w3.org/2000/svg" viewBox="0 0 1200 700" role="img" aria-labelledby="t d">
  <title id="t">Blockchain basics</title>
  <desc id="d">Network nodes connected to a shared ledger card</desc>
  <defs>
    <linearGradient id="bg" x1="0" y1="0" x2="1" y2="1">
      <stop offset="0%" stop-color="#071325"/>
      <stop offset="100%" stop-color="#0f2941"/>
    </linearGradient>
    <radialGradient id="glow" cx="50%" cy="45%" r="60%">
      <stop offset="0%" stop-color="#39d2c0" stop-opacity=".28"/>
      <stop offset="100%" stop-color="#39d2c0" stop-opacity="0"/>
    </radialGradient>
    <pattern id="dots" width="22" height="22" patternUnits="userSpaceOnUse">
      <circle cx="1.5" cy="1.5" r="1.1" fill="#6fa3c7" fill-opacity=".22"/>
    </pattern>
  </defs>
  <rect width="1200" height="700" fill="url(#bg)"/>
  <rect width="1200" height="700" fill="url(#dots)"/>
  <rect width="1200" height="700" fill="url(#glow)"/>
  <g stroke="#39d2c0" stroke-opacity=".45" fill="none">
    <circle cx="220" cy="180" r="18"/><circle cx="440" cy="130" r="18"/><circle cx="680" cy="170" r="18"/><circle cx="920" cy="140" r="18"/>
    <line x1="238" y1="180" x2="422" y2="130"/><line x1="458" y1="130" x2="662" y2="170"/><line x1="698" y1="170" x2="902" y2="140"/>
  </g>
  <rect x="250" y="250" width="700" height="280" rx="24" fill="#0b1f36" stroke="#2dd4bf" stroke-opacity=".35"/>
  <g stroke="#d2e6ff" stroke-width="8" stroke-linecap="round">
    <line x1="320" y1="325" x2="610" y2="325"/>
    <line x1="320" y1="365" x2="700" y2="365"/>
  </g>
  <rect x="300" y="420" width="560" height="18" rx="9" fill="#223b57"/>
  <rect x="300" y="420" width="340" height="18" rx="9" fill="#39d2c0"/>
</svg>
